<svg width="806" height="310" viewBox="0 0 806 310" fill="none" xmlns="http://www.w3.org/2000/svg">
<path d="M4.3679 45.1388V29.5455H77.8359V45.1388H50.4492V119H31.7546V45.1388H4.3679ZM110.169 120.31C103.385 120.31 97.517 118.869 92.5667 115.986C87.6455 113.074 83.8454 109.027 81.1665 103.843C78.4875 98.631 77.148 92.5888 77.148 85.7166C77.148 78.7862 78.4875 72.7294 81.1665 67.5462C83.8454 62.3338 87.6455 58.2862 92.5667 55.4034C97.517 52.4915 103.385 51.0355 110.169 51.0355C116.954 51.0355 122.807 52.4915 127.728 55.4034C132.679 58.2862 136.493 62.3338 139.172 67.5462C141.851 72.7294 143.191 78.7862 143.191 85.7166C143.191 92.5888 141.851 98.631 139.172 103.843C136.493 109.027 132.679 113.074 127.728 115.986C122.807 118.869 116.954 120.31 110.169 120.31ZM110.257 105.896C113.343 105.896 115.92 105.023 117.988 103.276C120.055 101.499 121.613 99.0824 122.661 96.0249C123.739 92.9673 124.278 89.4876 124.278 85.5856C124.278 81.6836 123.739 78.2038 122.661 75.1463C121.613 72.0888 120.055 69.6719 117.988 67.8956C115.92 66.1193 113.343 65.2312 110.257 65.2312C107.141 65.2312 104.52 66.1193 102.394 67.8956C100.298 69.6719 98.7108 72.0888 97.6334 75.1463C96.5851 78.2038 96.061 81.6836 96.061 85.5856C96.061 89.4876 96.5851 92.9673 97.6334 96.0249C98.7108 99.0824 100.298 101.499 102.394 103.276C104.52 105.023 107.141 105.896 110.257 105.896ZM185.603 120.31C178.818 120.31 172.951 118.869 168 115.986C163.079 113.074 159.279 109.027 156.6 103.843C153.921 98.631 152.582 92.5888 152.582 85.7166C152.582 78.7862 153.921 72.7294 156.6 67.5462C159.279 62.3338 163.079 58.2862 168 55.4034C172.951 52.4915 178.818 51.0355 185.603 51.0355C192.388 51.0355 198.241 52.4915 203.162 55.4034C208.112 58.2862 211.927 62.3338 214.606 67.5462C217.285 72.7294 218.624 78.7862 218.624 85.7166C218.624 92.5888 217.285 98.631 214.606 103.843C211.927 109.027 208.112 113.074 203.162 115.986C198.241 118.869 192.388 120.31 185.603 120.31ZM185.69 105.896C188.777 105.896 191.354 105.023 193.421 103.276C195.489 101.499 197.047 99.0824 198.095 96.0249C199.172 92.9673 199.711 89.4876 199.711 85.5856C199.711 81.6836 199.172 78.2038 198.095 75.1463C197.047 72.0888 195.489 69.6719 193.421 67.8956C191.354 66.1193 188.777 65.2312 185.69 65.2312C182.574 65.2312 179.954 66.1193 177.828 67.8956C175.731 69.6719 174.144 72.0888 173.067 75.1463C172.019 78.2038 171.495 81.6836 171.495 85.5856C171.495 89.4876 172.019 92.9673 173.067 96.0249C174.144 99.0824 175.731 101.499 177.828 103.276C179.954 105.023 182.574 105.896 185.69 105.896ZM231.073 119V29.5455H249.68V63.1783H250.248C251.063 61.3729 252.242 59.5384 253.786 57.6747C255.358 55.782 257.397 54.2095 259.901 52.9574C262.434 51.6761 265.579 51.0355 269.335 51.0355C274.228 51.0355 278.741 52.3168 282.876 54.8793C287.011 57.4126 290.316 61.2418 292.791 66.3668C295.266 71.4627 296.504 77.8544 296.504 85.5419C296.504 93.0256 295.295 99.3445 292.878 104.499C290.491 109.624 287.229 113.511 283.094 116.161C278.989 118.782 274.388 120.092 269.292 120.092C265.681 120.092 262.609 119.495 260.076 118.301C257.571 117.107 255.518 115.608 253.917 113.802C252.315 111.968 251.092 110.119 250.248 108.255H249.418V119H231.073ZM249.287 85.4545C249.287 89.4439 249.84 92.9236 250.947 95.8938C252.053 98.864 253.655 101.179 255.751 102.839C257.848 104.469 260.396 105.285 263.395 105.285C266.424 105.285 268.986 104.455 271.083 102.795C273.179 101.106 274.766 98.7766 275.844 95.8065C276.95 92.8072 277.503 89.3565 277.503 85.4545C277.503 81.5817 276.965 78.1747 275.887 75.2337C274.81 72.2926 273.223 69.9922 271.126 68.3324C269.03 66.6726 266.453 65.8427 263.395 65.8427C260.367 65.8427 257.804 66.6435 255.708 68.245C253.64 69.8466 252.053 72.1179 250.947 75.0589C249.84 78 249.287 81.4652 249.287 85.4545ZM337.737 119V29.5455H396.965V45.1388H356.65V66.4542H393.034V82.0476H356.65V119H337.737ZM409.338 119V51.9091H427.945V119H409.338ZM418.685 43.2607C415.919 43.2607 413.545 42.3434 411.565 40.5089C409.614 38.6452 408.639 36.4176 408.639 33.826C408.639 31.2635 409.614 29.065 411.565 27.2305C413.545 25.3668 415.919 24.435 418.685 24.435C421.451 24.435 423.81 25.3668 425.761 27.2305C427.741 29.065 428.731 31.2635 428.731 33.826C428.731 36.4176 427.741 38.6452 425.761 40.5089C423.81 42.3434 421.451 43.2607 418.685 43.2607ZM461.457 80.2131V119H442.85V51.9091H460.584V63.7461H461.37C462.855 59.8441 465.345 56.7575 468.839 54.4861C472.334 52.1857 476.57 51.0355 481.55 51.0355C486.209 51.0355 490.271 52.0547 493.736 54.093C497.201 56.1314 499.895 59.0433 501.817 62.8288C503.739 66.5852 504.7 71.0696 504.7 76.282V119H486.092V79.6016C486.122 75.4957 485.073 72.2926 482.948 69.9922C480.822 67.6626 477.895 66.4979 474.168 66.4979C471.664 66.4979 469.451 67.0366 467.529 68.114C465.636 69.1914 464.151 70.7638 463.074 72.8313C462.025 74.8697 461.487 77.3303 461.457 80.2131ZM538.496 120.267C534.216 120.267 530.401 119.524 527.052 118.039C523.704 116.525 521.054 114.297 519.103 111.356C517.181 108.386 516.22 104.688 516.22 100.262C516.22 96.5344 516.904 93.4041 518.273 90.8707C519.642 88.3374 521.505 86.299 523.864 84.7557C526.222 83.2124 528.901 82.0476 531.901 81.2614C534.929 80.4751 538.103 79.9219 541.423 79.6016C545.325 79.1939 548.47 78.8153 550.857 78.4659C553.245 78.0874 554.978 77.5341 556.055 76.8061C557.133 76.0781 557.671 75.0007 557.671 73.5739V73.3118C557.671 70.5455 556.798 68.4052 555.051 66.891C553.333 65.3768 550.887 64.6197 547.713 64.6197C544.364 64.6197 541.699 65.3622 539.719 66.8473C537.739 68.3033 536.429 70.1378 535.788 72.3509L518.579 70.9531C519.452 66.8764 521.17 63.353 523.733 60.3828C526.295 57.3835 529.6 55.0831 533.648 53.4815C537.725 51.8509 542.442 51.0355 547.8 51.0355C551.527 51.0355 555.094 51.4723 558.501 52.3459C561.937 53.2195 564.98 54.5735 567.63 56.408C570.309 58.2425 572.42 60.6012 573.964 63.484C575.507 66.3377 576.279 69.7592 576.279 73.7486V119H558.632V109.696H558.108C557.031 111.793 555.589 113.642 553.784 115.244C551.979 116.816 549.809 118.054 547.276 118.956C544.742 119.83 541.816 120.267 538.496 120.267ZM543.825 107.425C546.562 107.425 548.979 106.886 551.076 105.809C553.172 104.702 554.818 103.217 556.012 101.354C557.205 99.4901 557.802 97.3789 557.802 95.0202V87.9006C557.22 88.2791 556.419 88.6286 555.4 88.9489C554.41 89.2401 553.289 89.5167 552.037 89.7788C550.785 90.0117 549.532 90.2301 548.28 90.4339C547.028 90.6087 545.893 90.7688 544.873 90.9144C542.689 91.2347 540.782 91.7443 539.151 92.4432C537.521 93.142 536.254 94.0884 535.351 95.2823C534.449 96.4471 533.997 97.9031 533.997 99.6502C533.997 102.184 534.915 104.12 536.749 105.46C538.613 106.77 540.971 107.425 543.825 107.425ZM609.322 80.2131V119H590.714V51.9091H608.448V63.7461H609.234C610.719 59.8441 613.209 56.7575 616.703 54.4861C620.198 52.1857 624.435 51.0355 629.414 51.0355C634.073 51.0355 638.135 52.0547 641.6 54.093C645.066 56.1314 647.759 59.0433 649.681 62.8288C651.603 66.5852 652.564 71.0696 652.564 76.282V119H633.957V79.6016C633.986 75.4957 632.938 72.2926 630.812 69.9922C628.686 67.6626 625.76 66.4979 622.032 66.4979C619.528 66.4979 617.315 67.0366 615.393 68.114C613.5 69.1914 612.015 70.7638 610.938 72.8313C609.89 74.8697 609.351 77.3303 609.322 80.2131ZM697.542 120.31C690.67 120.31 684.759 118.854 679.809 115.942C674.888 113.001 671.102 108.925 668.452 103.712C665.831 98.5 664.521 92.5014 664.521 85.7166C664.521 78.8445 665.846 72.8168 668.496 67.6335C671.175 62.4212 674.975 58.359 679.896 55.4471C684.817 52.506 690.67 51.0355 697.455 51.0355C703.308 51.0355 708.433 52.0984 712.83 54.2241C717.227 56.3498 720.707 59.3345 723.269 63.1783C725.832 67.022 727.244 71.5355 727.506 76.7188H709.947C709.452 73.37 708.142 70.6765 706.016 68.6381C703.919 66.5707 701.168 65.5369 697.761 65.5369C694.878 65.5369 692.359 66.3232 690.204 67.8956C688.079 69.4389 686.419 71.6957 685.225 74.6658C684.031 77.636 683.434 81.2322 683.434 85.4545C683.434 89.7351 684.016 93.375 685.181 96.3743C686.375 99.3736 688.049 101.659 690.204 103.232C692.359 104.804 694.878 105.591 697.761 105.591C699.886 105.591 701.794 105.154 703.483 104.28C705.201 103.407 706.613 102.14 707.72 100.48C708.855 98.7912 709.598 96.7674 709.947 94.4087H727.506C727.215 99.5337 725.817 104.047 723.313 107.949C720.838 111.822 717.416 114.85 713.048 117.034C708.68 119.218 703.512 120.31 697.542 120.31ZM769.995 120.31C763.094 120.31 757.153 118.913 752.174 116.117C747.224 113.293 743.409 109.303 740.73 104.149C738.051 98.9659 736.711 92.8363 736.711 85.7603C736.711 78.859 738.051 72.8022 740.73 67.5898C743.409 62.3775 747.18 58.3153 752.043 55.4034C756.935 52.4915 762.671 51.0355 769.252 51.0355C773.678 51.0355 777.799 51.7489 781.613 53.1758C785.457 54.5735 788.806 56.6847 791.66 59.5092C794.542 62.3338 796.785 65.8864 798.386 70.1669C799.988 74.4183 800.789 79.3977 800.789 85.1051V90.2156H744.137V78.6843H783.273C783.273 76.0053 782.691 73.6321 781.526 71.5646C780.361 69.4972 778.745 67.881 776.678 66.7163C774.639 65.5224 772.266 64.9254 769.558 64.9254C766.733 64.9254 764.229 65.5806 762.045 66.891C759.89 68.1722 758.202 69.9048 756.979 72.0888C755.756 74.2436 755.129 76.6459 755.1 79.2958V90.2592C755.1 93.5788 755.712 96.4471 756.935 98.864C758.187 101.281 759.949 103.145 762.22 104.455C764.491 105.765 767.185 106.42 770.301 106.42C772.368 106.42 774.261 106.129 775.979 105.547C777.697 104.964 779.167 104.091 780.39 102.926C781.613 101.761 782.545 100.335 783.186 98.6456L800.395 99.7812C799.522 103.916 797.731 107.527 795.023 110.614C792.344 113.671 788.879 116.059 784.627 117.777C780.405 119.466 775.528 120.31 769.995 120.31Z" fill="#1F1D1A"/>
<g clip-path="url(#clip0_329_22)">
<path d="M159.238 222.298V271.702C159.238 274.846 160.917 277.757 163.655 279.331L206.539 304.02C209.277 305.593 212.635 305.593 215.374 304.02L258.258 279.331C260.996 277.757 262.675 274.846 262.675 271.702V222.298C262.675 219.154 260.996 216.243 258.258 214.669L215.374 189.98C212.635 188.407 209.277 188.407 206.539 189.98L163.655 214.669C160.944 216.243 159.238 219.154 159.238 222.298Z" fill="#213147"/>
<path d="M220.333 256.574L214.209 273.3C214.03 273.762 214.03 274.279 214.209 274.742L224.723 303.53L236.892 296.519L222.296 256.574C221.961 255.645 220.668 255.645 220.333 256.574Z" fill="#12AAFF"/>
<path d="M232.576 228.43C232.241 227.502 230.948 227.502 230.613 228.43L224.49 245.156C224.31 245.619 224.31 246.136 224.49 246.598L241.719 293.737L253.888 286.726L232.576 228.43Z" fill="#12AAFF"/>
<path d="M210.956 191.808C211.268 191.808 211.552 191.885 211.833 192.041L258.231 218.766C258.772 219.076 259.108 219.64 259.108 220.261V273.712C259.108 274.33 258.772 274.897 258.231 275.208L211.833 301.959C211.576 302.115 211.265 302.192 210.956 302.192C210.648 302.192 210.361 302.115 210.08 301.959L163.706 275.234C163.164 274.924 162.829 274.36 162.829 273.739V220.261C162.829 219.643 163.164 219.076 163.706 218.766L210.103 192.041C210.361 191.885 210.672 191.808 210.956 191.808ZM210.956 184C209.304 184 207.649 184.439 206.177 185.29L159.78 212.015C156.835 213.714 155 216.861 155 220.261V273.712C155 277.112 156.835 280.283 159.78 281.985L206.177 308.71C207.649 309.561 209.301 310 210.956 310C212.611 310 214.263 309.561 215.736 308.71L262.133 281.985C265.105 280.283 266.913 277.139 266.913 273.712V220.261C266.913 216.861 265.078 213.69 262.133 211.988L215.76 185.29C214.26 184.439 212.608 184 210.953 184H210.956Z" fill="#9DCCED"/>
<path d="M180.292 293.791L184.554 282.14L193.131 289.252L185.122 296.573L180.292 293.791Z" fill="#213147"/>
<path d="M207.054 216.446H195.301C194.424 216.446 193.622 216.986 193.338 217.81L168.124 286.777L180.292 293.788L208.062 217.837C208.296 217.168 207.805 216.446 207.054 216.446Z" fill="white"/>
<path d="M227.644 216.446H215.891C215.015 216.446 214.213 216.986 213.928 217.81L185.125 296.57L197.294 303.581L228.626 217.864C228.883 217.168 228.368 216.446 227.644 216.446Z" fill="white"/>
<path d="M317 230.801C318.162 230.801 319.17 231.034 319.972 231.524C320.774 232.013 321.573 232.942 322.349 234.333L337.693 262.115C337.848 262.426 337.872 262.682 337.797 262.888C337.72 263.094 337.486 263.199 337.127 263.199H331.237C330.719 263.199 330.36 262.993 330.178 262.605L326.898 256.651H305.119L301.917 262.605C301.71 263.017 301.348 263.199 300.857 263.199H294.839C294.426 263.199 294.192 263.094 294.114 262.888C294.037 262.682 294.064 262.426 294.219 262.115L309.435 234.333C310.21 232.942 310.958 232.013 311.709 231.524C312.457 231.034 313.31 230.801 314.292 230.801H317.003H317ZM307.983 251.238H323.947L316.584 237.683C316.456 237.477 316.3 237.349 316.067 237.349H315.782C315.576 237.349 315.396 237.453 315.265 237.683L307.98 251.238H307.983Z" fill="#213147"/>
<path d="M371.407 230.801C374.971 230.801 377.503 231.601 379.053 233.199C380.604 234.796 381.379 237.167 381.379 240.311V242.938C381.379 245.592 380.837 247.679 379.751 249.226C378.664 250.772 376.907 251.752 374.453 252.191L382.384 261.984C382.54 262.139 382.591 262.369 382.513 262.679C382.462 262.99 382.202 263.142 381.765 263.142H375.797C375.384 263.142 375.127 263.091 374.971 263.014C374.815 262.909 374.66 262.757 374.507 262.551L367.172 252.937H352.19V262.139C352.19 262.808 351.855 263.145 351.181 263.145H346.168C345.444 263.145 345.109 262.811 345.109 262.139V232.192C345.109 231.264 345.573 230.801 346.504 230.801H371.407ZM352.214 247.321H369.961C371.538 247.321 372.649 246.987 373.295 246.315C373.942 245.646 374.277 244.613 374.277 243.222V241.29C374.277 239.898 373.942 238.868 373.295 238.197C372.649 237.528 371.538 237.19 369.961 237.19H352.806C352.393 237.19 352.211 237.37 352.211 237.758V247.318L352.214 247.321Z" fill="#213147"/>
<path d="M420.153 230.801C423.332 230.801 425.603 231.446 426.947 232.709C428.291 233.972 428.961 235.88 428.961 238.43V240.645C428.961 243.222 427.979 245.18 425.989 246.521C428.108 247.757 429.192 249.742 429.192 252.474V255.155C429.192 256.392 429.063 257.499 428.779 258.482C428.494 259.461 428.054 260.312 427.411 261.007C426.764 261.703 425.938 262.244 424.879 262.605C423.82 262.966 422.53 263.172 420.979 263.172H393.44C392.509 263.172 392.045 262.709 392.045 261.781V232.195C392.045 231.267 392.509 230.804 393.44 230.804H420.15L420.153 230.801ZM399.15 244.255H418.163C419.713 244.255 420.746 244.022 421.315 243.559C421.883 243.096 422.141 242.424 422.141 241.523V239.949C422.141 238.997 421.883 238.301 421.338 237.835C420.797 237.396 419.917 237.167 418.729 237.167H399.766C399.353 237.167 399.171 237.373 399.171 237.761V244.255H399.144H399.15ZM399.15 249.306V256.189C399.15 256.601 399.356 256.783 399.745 256.783H418.759C419.998 256.783 420.878 256.55 421.392 256.114C421.907 255.678 422.194 254.955 422.194 253.976V252.224C422.194 251.271 421.91 250.549 421.341 250.059C420.773 249.569 419.713 249.312 418.163 249.312H399.15V249.306Z" fill="#213147"/>
<path d="M446.478 230.801C447.149 230.801 447.487 231.135 447.487 231.807V262.142C447.487 262.811 447.152 263.148 446.478 263.148H441.465C440.741 263.148 440.406 262.814 440.406 262.142V231.834C440.406 231.165 440.768 230.828 441.465 230.828L446.478 230.801Z" fill="#213147"/>
<path d="M495.045 230.801C495.77 230.801 496.105 231.135 496.105 231.807V236.343C496.105 237.065 495.743 237.399 495.045 237.399H480.5V262.142C480.5 262.811 480.165 263.148 479.492 263.148H474.428C473.758 263.148 473.419 262.814 473.419 262.142V237.399H458.874C458.15 237.399 457.815 237.038 457.815 236.343V231.807C457.815 231.138 458.177 230.801 458.874 230.801H495.042H495.045Z" fill="#213147"/>
<path d="M531.701 230.801C535.265 230.801 537.797 231.601 539.348 233.199C540.898 234.796 541.673 237.167 541.673 240.311V242.938C541.673 245.592 541.131 247.679 540.045 249.226C538.959 250.772 537.202 251.752 534.748 252.191L542.679 261.984C542.834 262.139 542.885 262.369 542.807 262.679C542.757 262.99 542.496 263.142 542.059 263.142H536.092C535.679 263.142 535.421 263.091 535.266 263.014C535.11 262.909 534.954 262.757 534.802 262.551L527.466 252.937H512.484V262.139C512.484 262.808 512.149 263.145 511.476 263.145H506.463C505.739 263.145 505.403 262.811 505.403 262.139V232.192C505.403 231.264 505.867 230.801 506.798 230.801H531.701ZM512.532 247.321H530.279C531.857 247.321 532.967 246.987 533.613 246.315C534.26 245.646 534.595 244.613 534.595 243.222V241.29C534.595 239.898 534.26 238.868 533.613 238.197C532.967 237.528 531.857 237.19 530.279 237.19H513.125C512.712 237.19 512.529 237.37 512.529 237.758V247.318L512.532 247.321Z" fill="#213147"/>
<path d="M557.769 230.801C558.439 230.801 558.777 231.135 558.777 231.807V250.259C558.777 251.495 558.882 252.528 559.088 253.325C559.295 254.149 559.63 254.794 560.097 255.257C560.561 255.747 561.183 256.081 561.982 256.263C562.785 256.469 563.766 256.574 564.978 256.574H577.817C579.032 256.574 580.014 256.469 580.813 256.263C581.615 256.057 582.235 255.723 582.699 255.257C583.162 254.767 583.501 254.122 583.68 253.325C583.86 252.501 583.965 251.495 583.965 250.259V231.807C583.965 231.138 584.3 230.801 584.973 230.801H590.037C590.707 230.801 591.046 231.135 591.046 231.807V250.955C591.046 253.17 590.812 255.051 590.348 256.624C589.884 258.171 589.133 259.434 588.101 260.413C587.068 261.393 585.724 262.088 584.069 262.527C582.417 262.966 580.427 263.172 578.075 263.172H564.718C562.369 263.172 560.378 262.966 558.75 262.527C557.122 262.088 555.778 261.393 554.746 260.413C553.713 259.434 552.962 258.171 552.471 256.624C551.98 255.078 551.747 253.17 551.747 250.955V231.807C551.747 231.138 552.109 230.801 552.806 230.801H557.766H557.769Z" fill="#213147"/>
<path d="M610.959 230.801C611.63 230.801 612.225 230.852 612.716 230.929C613.207 231.034 613.647 231.186 614.009 231.47C614.371 231.727 614.706 232.088 615.017 232.527C615.302 232.966 615.613 233.557 615.921 234.306L625.558 256.496C625.687 256.78 625.893 256.908 626.205 256.908H626.773C627.084 256.908 627.291 256.78 627.42 256.496L637.056 234.306C637.368 233.56 637.676 232.966 637.96 232.527C638.245 232.088 638.58 231.727 638.969 231.47C639.331 231.213 639.771 231.031 640.235 230.929C640.726 230.825 641.294 230.801 641.965 230.801H646.924C648.525 230.801 649.611 231.162 650.18 231.885C650.748 232.607 651.006 233.843 651.006 235.596V262.142C651.006 262.811 650.644 263.148 649.946 263.148H645.218C644.547 263.148 644.209 262.814 644.209 262.142V237.994C644.209 237.683 644.081 237.531 643.847 237.531H643.434C643.123 237.531 642.916 237.659 642.839 237.892L633.486 258.613C633.124 259.437 632.738 260.16 632.349 260.727C631.963 261.294 631.547 261.757 631.11 262.145C630.67 262.506 630.155 262.79 629.586 262.945C629.018 263.1 628.347 263.178 627.572 263.178H625.352C624.576 263.178 623.906 263.1 623.337 262.945C622.769 262.79 622.251 262.533 621.814 262.145C621.374 261.784 620.937 261.294 620.575 260.727C620.189 260.16 619.8 259.464 619.438 258.613L610.085 237.892C609.981 237.635 609.801 237.531 609.49 237.531H609.077C608.819 237.531 608.715 237.686 608.715 237.994V262.142C608.715 262.811 608.379 263.148 607.706 263.148H602.977C602.253 263.148 601.918 262.814 601.918 262.142V235.596C601.918 233.843 602.202 232.607 602.744 231.885C603.313 231.162 604.396 230.801 606.024 230.801H610.959Z" fill="#213147"/>
</g>
<defs>
<clipPath id="clip0_329_22">
<rect width="496" height="126" fill="white" transform="translate(155 184)"/>
</clipPath>
</defs>
</svg>
